<svg xmlns="http://www.w3.org/2000/svg" viewBox="0 0 512 512" width="100%" height="100%">
  <path fill="#5CB85C" d="M256,0 C114.6,0 0,114.6 0,256 C0,301.6 12.1,344.5 33.2,381.8 L7.4,491.5 C5.1,501.3 14,509.8 23.7,507.2 L137.4,476.9 C172.9,499.2 213.1,512 256,512 C397.4,512 512,397.4 512,256 C512,114.6 397.4,0 256,0 Z"/>
  <path fill="#FFFFFF" d="M381.9,328.7 C375.4,325.4 343.3,309.6 337.3,307.4 C331.3,305.2 327,304.1 322.6,310.7 C318.3,317.2 305.8,332 302.1,336.3 C298.3,340.7 294.6,341.2 288.1,338 C281.6,334.7 260.6,327.8 235.7,305.6 C216.3,288.3 203.2,267 199.4,260.5 C195.6,254 199,250.5 202.3,247.3 C205.2,244.4 208.8,239.7 212.1,235.8 C215.4,231.9 216.5,229.3 218.6,224.9 C220.8,220.6 219.7,216.7 218.1,213.4 C216.5,210.1 203.5,178.1 198.1,165.1 C192.8,152.4 187.5,154.2 183.4,154 C179.6,153.8 175.2,153.8 170.9,153.8 C166.5,153.8 159.4,155.5 153.5,161.9 C147.5,168.4 130.7,184.2 130.7,216.3 C130.7,248.4 154.1,279.3 157.3,283.6 C160.6,288 206.5,358.7 276.7,389 C293.4,396.2 306.5,400.5 316.6,403.7 C333.3,409 348.6,408.2 360.6,406.4 C374,404.4 401.8,389.6 407.6,373.2 C413.4,356.8 413.4,342.7 411.7,339.8 C410,336.8 405.7,335.2 381.9,328.7 Z"/>
</svg>
